<mxfile host="65bd71144e">
    <diagram id="wAnwV6fGaFL6vdjsBGnB" name="PÃ¡gina-1">
        <mxGraphModel dx="904" dy="97" grid="1" gridSize="10" guides="1" tooltips="1" connect="1" arrows="1" fold="1" page="1" pageScale="1" pageWidth="827" pageHeight="1169" math="0" shadow="0">
            <root>
                <mxCell id="0"/>
                <mxCell id="1" parent="0"/>
                <mxCell id="4" style="edgeStyle=none;html=1;entryX=0.5;entryY=0;entryDx=0;entryDy=0;" edge="1" parent="1" source="2" target="3">
                    <mxGeometry relative="1" as="geometry"/>
                </mxCell>
                <mxCell id="2" value="EJ18" style="rounded=1;whiteSpace=wrap;html=1;" vertex="1" parent="1">
                    <mxGeometry x="140" y="20" width="120" height="60" as="geometry"/>
                </mxCell>
                <mxCell id="6" style="edgeStyle=none;html=1;entryX=0.5;entryY=0;entryDx=0;entryDy=0;" edge="1" parent="1" source="3" target="5">
                    <mxGeometry relative="1" as="geometry"/>
                </mxCell>
                <mxCell id="3" value="INT valorM=0, num=1, contador=0;" style="rounded=0;whiteSpace=wrap;html=1;" vertex="1" parent="1">
                    <mxGeometry x="140" y="120" width="120" height="60" as="geometry"/>
                </mxCell>
                <mxCell id="8" style="edgeStyle=none;html=1;" edge="1" parent="1" source="5" target="7">
                    <mxGeometry relative="1" as="geometry"/>
                </mxCell>
                <mxCell id="5" value="&quot;Ingrese la cantidad de multiplos&amp;nbsp;" style="shape=parallelogram;perimeter=parallelogramPerimeter;whiteSpace=wrap;html=1;fixedSize=1;" vertex="1" parent="1">
                    <mxGeometry x="125" y="220" width="150" height="60" as="geometry"/>
                </mxCell>
                <mxCell id="12" style="edgeStyle=none;html=1;" edge="1" parent="1" source="7" target="11">
                    <mxGeometry relative="1" as="geometry"/>
                </mxCell>
                <mxCell id="7" value="valorM" style="shape=parallelogram;perimeter=parallelogramPerimeter;whiteSpace=wrap;html=1;fixedSize=1;" vertex="1" parent="1">
                    <mxGeometry x="165" y="310" width="70" height="30" as="geometry"/>
                </mxCell>
                <mxCell id="9" value="" style="endArrow=classic;html=1;" edge="1" parent="1">
                    <mxGeometry width="50" height="50" relative="1" as="geometry">
                        <mxPoint x="260" y="230" as="sourcePoint"/>
                        <mxPoint x="300" y="190" as="targetPoint"/>
                    </mxGeometry>
                </mxCell>
                <mxCell id="10" value="" style="endArrow=classic;html=1;" edge="1" parent="1">
                    <mxGeometry width="50" height="50" relative="1" as="geometry">
                        <mxPoint x="260" y="290" as="sourcePoint"/>
                        <mxPoint x="220" y="320" as="targetPoint"/>
                        <Array as="points">
                            <mxPoint x="230" y="310"/>
                        </Array>
                    </mxGeometry>
                </mxCell>
                <mxCell id="14" style="edgeStyle=none;html=1;" edge="1" parent="1" source="11" target="13">
                    <mxGeometry relative="1" as="geometry"/>
                </mxCell>
                <mxCell id="26" style="edgeStyle=none;html=1;entryX=0.5;entryY=0;entryDx=0;entryDy=0;" edge="1" parent="1" source="11" target="31">
                    <mxGeometry relative="1" as="geometry">
                        <mxPoint x="200" y="950" as="targetPoint"/>
                        <Array as="points">
                            <mxPoint x="570" y="425"/>
                            <mxPoint x="560" y="920"/>
                            <mxPoint x="200" y="920"/>
                        </Array>
                    </mxGeometry>
                </mxCell>
                <mxCell id="11" value="contador &amp;lt; valorM" style="rhombus;whiteSpace=wrap;html=1;" vertex="1" parent="1">
                    <mxGeometry x="125" y="380" width="150" height="90" as="geometry"/>
                </mxCell>
                <mxCell id="19" style="edgeStyle=none;html=1;entryX=0.5;entryY=0;entryDx=0;entryDy=0;" edge="1" parent="1" source="13" target="17">
                    <mxGeometry relative="1" as="geometry">
                        <mxPoint x="380" y="545" as="targetPoint"/>
                        <Array as="points">
                            <mxPoint x="380" y="545"/>
                        </Array>
                    </mxGeometry>
                </mxCell>
                <mxCell id="22" style="edgeStyle=none;html=1;entryX=0.5;entryY=0;entryDx=0;entryDy=0;" edge="1" parent="1" source="13" target="27">
                    <mxGeometry relative="1" as="geometry">
                        <mxPoint x="200" y="760" as="targetPoint"/>
                        <Array as="points">
                            <mxPoint x="40" y="545"/>
                            <mxPoint x="40" y="760"/>
                            <mxPoint x="200" y="760"/>
                        </Array>
                    </mxGeometry>
                </mxCell>
                <mxCell id="13" value="num%3==0 &amp;amp; num%5!=0" style="rhombus;whiteSpace=wrap;html=1;" vertex="1" parent="1">
                    <mxGeometry x="97.5" y="505" width="205" height="80" as="geometry"/>
                </mxCell>
                <mxCell id="15" value="V" style="text;html=1;strokeColor=none;fillColor=none;align=center;verticalAlign=middle;whiteSpace=wrap;rounded=0;" vertex="1" parent="1">
                    <mxGeometry x="157.5" y="470" width="40" height="30" as="geometry"/>
                </mxCell>
                <mxCell id="24" style="edgeStyle=none;html=1;" edge="1" parent="1" source="17" target="23">
                    <mxGeometry relative="1" as="geometry"/>
                </mxCell>
                <mxCell id="17" value="contador++" style="rounded=0;whiteSpace=wrap;html=1;" vertex="1" parent="1">
                    <mxGeometry x="320" y="585" width="120" height="45" as="geometry"/>
                </mxCell>
                <mxCell id="21" value="V" style="text;html=1;strokeColor=none;fillColor=none;align=center;verticalAlign=middle;whiteSpace=wrap;rounded=0;" vertex="1" parent="1">
                    <mxGeometry x="320" y="520" width="40" height="30" as="geometry"/>
                </mxCell>
                <mxCell id="25" style="edgeStyle=none;html=1;entryX=0.5;entryY=0;entryDx=0;entryDy=0;" edge="1" parent="1" source="23" target="27">
                    <mxGeometry relative="1" as="geometry">
                        <mxPoint x="240" y="760" as="targetPoint"/>
                        <Array as="points">
                            <mxPoint x="380" y="760"/>
                            <mxPoint x="200" y="760"/>
                        </Array>
                    </mxGeometry>
                </mxCell>
                <mxCell id="23" value="num" style="shape=parallelogram;perimeter=parallelogramPerimeter;whiteSpace=wrap;html=1;fixedSize=1;" vertex="1" parent="1">
                    <mxGeometry x="335" y="660" width="90" height="40" as="geometry"/>
                </mxCell>
                <mxCell id="28" style="edgeStyle=none;html=1;" edge="1" parent="1" source="27">
                    <mxGeometry relative="1" as="geometry">
                        <mxPoint x="200" y="360" as="targetPoint"/>
                        <Array as="points">
                            <mxPoint x="200" y="880"/>
                            <mxPoint y="880"/>
                            <mxPoint y="360"/>
                        </Array>
                    </mxGeometry>
                </mxCell>
                <mxCell id="27" value="num++" style="rounded=0;whiteSpace=wrap;html=1;" vertex="1" parent="1">
                    <mxGeometry x="157.5" y="800" width="85" height="30" as="geometry"/>
                </mxCell>
                <mxCell id="29" value="F" style="text;html=1;strokeColor=none;fillColor=none;align=center;verticalAlign=middle;whiteSpace=wrap;rounded=0;" vertex="1" parent="1">
                    <mxGeometry x="40" y="510" width="40" height="30" as="geometry"/>
                </mxCell>
                <mxCell id="30" value="F" style="text;html=1;strokeColor=none;fillColor=none;align=center;verticalAlign=middle;whiteSpace=wrap;rounded=0;" vertex="1" parent="1">
                    <mxGeometry x="320" y="400" width="40" height="30" as="geometry"/>
                </mxCell>
                <mxCell id="31" value="FinEj18" style="rounded=1;whiteSpace=wrap;html=1;" vertex="1" parent="1">
                    <mxGeometry x="140" y="950" width="120" height="60" as="geometry"/>
                </mxCell>
                <mxCell id="32" value="" style="endArrow=classic;html=1;" edge="1" parent="1">
                    <mxGeometry width="50" height="50" relative="1" as="geometry">
                        <mxPoint x="414" y="670" as="sourcePoint"/>
                        <mxPoint x="434" y="650" as="targetPoint"/>
                        <Array as="points">
                            <mxPoint x="414" y="670"/>
                        </Array>
                    </mxGeometry>
                </mxCell>
            </root>
        </mxGraphModel>
    </diagram>
</mxfile>